<?xml version="1.0" encoding="UTF-8" standalone="no" ?>
<!DOCTYPE svg PUBLIC "-//W3C//DTD SVG 1.1//EN" "http://www.w3.org/Graphics/SVG/1.1/DTD/svg11.dtd">
<svg xmlns="http://www.w3.org/2000/svg" xmlns:xlink="http://www.w3.org/1999/xlink" version="1.1" width="1080" height="1080" viewBox="0 0 1080 1080" xml:space="preserve">
<desc>Created with Fabric.js 5.2.4</desc>
<defs>
</defs>
<rect x="0" y="0" width="100%" height="100%" fill="transparent"></rect>
<g transform="matrix(1 0 0 1 540 540)" id="da32c7d5-8f40-4b32-b90b-f3ee0312a162"  >
<rect style="stroke: none; stroke-width: 1; stroke-dasharray: none; stroke-linecap: butt; stroke-dashoffset: 0; stroke-linejoin: miter; stroke-miterlimit: 4; fill: rgb(255,255,255); fill-rule: nonzero; opacity: 1; visibility: hidden;" vector-effect="non-scaling-stroke"  x="-540" y="-540" rx="0" ry="0" width="1080" height="1080" />
</g>
<g transform="matrix(Infinity NaN NaN Infinity 0 0)" id="917e9952-81e1-4ba4-bde3-9589a4c08081"  >
</g>
<g transform="matrix(7.39 0 0 7.39 2576.31 943.3)"  >
<rect style="stroke: none; stroke-width: 1; stroke-dasharray: none; stroke-linecap: butt; stroke-dashoffset: 0; stroke-linejoin: miter; stroke-miterlimit: 4; fill: rgb(26,44,91); fill-rule: nonzero; opacity: 1;" vector-effect="non-scaling-stroke"  x="-0.5" y="-0.5" rx="0" ry="0" width="1" height="1" />
</g>
<g transform="matrix(11.31 0 0 11.31 540 540)"  >
<path style="stroke: none; stroke-width: 1; stroke-dasharray: none; stroke-linecap: butt; stroke-dashoffset: 0; stroke-linejoin: miter; stroke-miterlimit: 4; fill: rgb(26,44,91); fill-rule: nonzero; opacity: 1;" vector-effect="non-scaling-stroke"  transform=" translate(-50, -50)" d="M 60.8 17.1 C 57.016999999999996 17.1 53.385 17.75 50 18.93 C 46.615 17.75 42.983 17.1 39.2 17.1 C 21.059 17.1 6.3 31.859 6.3 50 C 6.3 68.142 21.059 82.9 39.199999999999996 82.9 C 42.983 82.9 46.614 82.25 50 81.07000000000001 C 53.385 82.25000000000001 57.017 82.9 60.8 82.9 C 78.942 82.9 93.69999999999999 68.141 93.69999999999999 50.00000000000001 C 93.7 31.859 78.941 17.1 60.8 17.1 z M 39.2 81.9 C 21.61 81.9 7.3 67.59 7.3 50 C 7.3 32.41 21.61 18.1 39.2 18.1 C 42.438 18.1 45.564 18.589000000000002 48.511 19.490000000000002 C 46.375 20.353 44.346000000000004 21.428 42.459 22.700000000000003 C 41.389 22.573000000000004 40.303000000000004 22.500000000000004 39.2 22.500000000000004 C 24.036 22.500000000000004 11.700000000000003 34.836000000000006 11.700000000000003 50 C 11.700000000000003 65.163 24.036 77.5 39.2 77.5 C 40.303000000000004 77.5 41.389 77.427 42.459 77.3 C 44.346000000000004 78.572 46.375 79.64699999999999 48.512 80.50999999999999 C 45.564 81.412 42.439 81.9 39.2 81.9 z M 49.258 37.959 C 48.197 38.977000000000004 47.276 40.134 46.512 41.400000000000006 C 45.397 40.45100000000001 44.099000000000004 39.714000000000006 42.675 39.252 C 43.459999999999994 37.933 44.382 36.707 45.425999999999995 35.593 C 46.82 36.198 48.108 36.997 49.258 37.959 z M 52.741 42.093 C 51.491 43.36600000000001 50.538 44.931000000000004 50 46.678000000000004 C 49.462 44.931000000000004 48.509 43.36600000000001 47.259 42.093 C 48.009 40.813 48.931 39.650000000000006 50 38.634 C 51.069 39.65 51.991 40.813 52.741 42.093 z M 60.3 50 C 60.3 51.645 60.092 53.239 59.733999999999995 54.775999999999996 C 57.545 54.287 55.9 52.335 55.9 50 C 55.9 47.665 57.545 45.714 59.734 45.225 C 60.092 46.762 60.3 48.356 60.3 50 z M 60.747 45.105 C 60.765 45.105 60.782 45.099999999999994 60.8 45.099999999999994 C 63.501999999999995 45.099999999999994 65.7 47.297999999999995 65.7 49.99999999999999 C 65.7 52.70199999999999 63.502 54.89999999999999 60.800000000000004 54.89999999999999 C 60.782000000000004 54.89999999999999 60.76500000000001 54.89499999999999 60.74700000000001 54.89499999999999 C 61.104 53.319 61.3 51.682 61.3 50 C 61.3 48.318 61.105 46.681 60.747 45.105 z M 59.484 55.747 C 59.076 57.186 58.529 58.565 57.84 59.862 C 56.400000000000006 59.429 55.098000000000006 58.685 53.998000000000005 57.714 C 54.784000000000006 56.211999999999996 55.34 54.577 55.639 52.852 C 56.44 54.297 57.831 55.369 59.484 55.747 z M 60.498 55.885 C 60.599 55.89 60.698 55.9 60.8 55.9 C 62.687 55.9 64.365 55.007 65.446 53.623999999999995 C 65.148 55.794999999999995 64.586 57.88099999999999 63.793 59.852 C 62.845 60.142 61.841 60.3 60.8 60.3 C 60.129999999999995 60.3 59.477 60.230999999999995 58.842999999999996 60.108 C 59.532 58.773 60.09 57.36 60.498 55.885 z M 66.7 50 C 66.7 46.712 66.11800000000001 43.557 65.055 40.631 C 68.615 42.255 71.1 45.839 71.1 50 C 71.1 54.161 68.615 57.745 65.05499999999999 59.369 C 66.118 56.443 66.7 53.288 66.7 50 z M 65.446 46.376 C 64.365 44.994 62.687 44.1 60.8 44.1 C 60.698 44.1 60.599 44.11 60.498 44.115 C 60.089999999999996 42.64 59.532 41.227000000000004 58.842999999999996 39.892 C 59.477 39.769 60.13 39.7 60.8 39.7 C 61.840999999999994 39.7 62.845 39.858000000000004 63.793 40.147000000000006 C 64.586 42.118 65.148 44.205 65.446 46.376 z M 59.484 44.253 C 57.831 44.632 56.440000000000005 45.703 55.639 47.148 C 55.34 45.423 54.784000000000006 43.787000000000006 53.998000000000005 42.286 C 55.098000000000006 41.315000000000005 56.401 40.571 57.84 40.138 C 58.529 41.435 59.076 42.815 59.484 44.253 z M 54.9 50 C 54.9 52.508 54.294 54.872 53.244 56.977000000000004 C 51.547 55.14 50.5 52.693 50.5 50 C 50.5 47.307 51.547 44.861 53.244 43.024 C 54.294 45.128 54.9 47.492 54.9 50 z M 50 61.366 C 48.931 60.35 48.009 59.186 47.259 57.907 C 48.509 56.63399999999999 49.462 55.068999999999996 50 53.321999999999996 C 50.538 55.068999999999996 51.492 56.63399999999999 52.741 57.907 C 51.991 59.187 51.069 60.35 50 61.366 z M 39.7 50 C 39.7 48.355 39.908 46.762 40.266000000000005 45.225 C 42.455 45.714 44.1 47.665 44.1 50 C 44.1 52.335 42.455 54.287 40.266 54.775999999999996 C 39.908 53.239 39.7 51.645 39.7 50 z M 39.253 54.895 C 39.235 54.895 39.218 54.900000000000006 39.2 54.900000000000006 C 36.498000000000005 54.900000000000006 34.300000000000004 52.702000000000005 34.300000000000004 50.00000000000001 C 34.300000000000004 47.29800000000001 36.498000000000005 45.10000000000001 39.2 45.10000000000001 C 39.218 45.10000000000001 39.235 45.10500000000001 39.253 45.10500000000001 C 38.895 46.681 38.7 48.318 38.7 50 C 38.7 51.682 38.896 53.319 39.253 54.895 z M 40.516 44.253 C 40.924 42.814 41.471 41.435 42.16 40.138 C 43.599999999999994 40.571 44.903 41.315 46.003 42.286 C 45.217 43.788000000000004 44.661 45.423 44.362 47.148 C 43.56 45.703 42.17 44.632 40.516 44.253 z M 39.502 44.115 C 39.401 44.11 39.302 44.1 39.2 44.1 C 37.313 44.1 35.635000000000005 44.994 34.554 46.376000000000005 C 34.852000000000004 44.205000000000005 35.414 42.118 36.207 40.147000000000006 C 37.155 39.858000000000004 38.159 39.7 39.2 39.7 C 39.870000000000005 39.7 40.523 39.769000000000005 41.157000000000004 39.892 C 40.467 41.227 39.91 42.64 39.502 44.115 z M 33.3 50 C 33.3 53.288 33.882 56.443 34.945 59.369 C 31.385 57.745 28.9 54.161 28.9 50 C 28.9 45.839 31.384999999999998 42.255 34.945 40.631 C 33.882 43.557 33.3 46.712 33.3 50 z M 34.554 53.624 C 35.635000000000005 55.007000000000005 37.313 55.900000000000006 39.2 55.900000000000006 C 39.302 55.900000000000006 39.401 55.89000000000001 39.502 55.885000000000005 C 39.910000000000004 57.36000000000001 40.468 58.773 41.157000000000004 60.108000000000004 C 40.523 60.231 39.87 60.3 39.2 60.3 C 38.159000000000006 60.3 37.155 60.141999999999996 36.207 59.852999999999994 C 35.414 57.882 34.852 55.795 34.554 53.624 z M 40.516 55.747 C 42.169 55.368 43.559999999999995 54.297 44.361999999999995 52.851 C 44.660999999999994 54.576 45.21699999999999 56.211 46.00299999999999 57.713 C 44.90299999999999 58.684 43.599999999999994 59.428000000000004 42.16 59.861000000000004 C 41.471 58.565 40.925 57.186 40.516 55.747 z M 45.1 50 C 45.1 47.492 45.706 45.129 46.756 43.024 C 48.453 44.861 49.5 47.308 49.5 50 C 49.5 52.693 48.453 55.139 46.756 56.976 C 45.706 54.871 45.1 52.508 45.1 50 z M 41.658 38.977 C 40.865 38.801 40.045 38.7 39.2 38.7 C 38.342000000000006 38.7 37.510000000000005 38.805 36.706 38.987 C 37.466 37.331 38.388000000000005 35.765 39.458000000000006 34.313 C 41.18900000000001 34.341 42.84700000000001 34.656000000000006 44.400000000000006 35.204 C 43.358 36.357 42.44 37.623 41.658 38.977 z M 35.445 39.355 C 32.881 40.263 30.741 42.064 29.404 44.391 C 29.931 41.431 30.862 38.611 32.148 35.992 C 33.991 35.059999999999995 36.038000000000004 34.486999999999995 38.206 34.349999999999994 C 37.122 35.91 36.191 37.584 35.445 39.355 z M 27.9 50 C 27.9 54.674 28.886 59.12 30.651 63.150999999999996 C 26.353 60.347 23.5 55.504 23.5 50 C 23.5 44.496 26.353 39.653 30.651 36.849000000000004 C 28.886 40.88 27.9 45.326 27.9 50 z M 29.404 55.608 C 30.742 57.934999999999995 32.881 59.736999999999995 35.445 60.644999999999996 C 36.191 62.416 37.122 64.08999999999999 38.206 65.64999999999999 C 36.038000000000004 65.51299999999999 33.991 64.939 32.148 64.008 C 30.862 61.389 29.931 58.568 29.404 55.608 z M 36.706 61.013 C 37.51 61.195 38.342 61.3 39.2 61.3 C 40.045 61.3 40.865 61.199 41.658 61.022999999999996 C 42.441 62.376999999999995 43.359 63.642999999999994 44.401 64.797 C 42.849000000000004 65.344 41.190000000000005 65.65899999999999 39.459 65.688 C 38.388 64.235 37.466 62.669 36.706 61.013 z M 42.675 60.747 C 44.099 60.286 45.397 59.549 46.510999999999996 58.6 C 47.275999999999996 59.865 48.196 61.023 49.257 62.041000000000004 C 48.107 63.00300000000001 46.818999999999996 63.80200000000001 45.425 64.406 C 44.382 63.292 43.461 62.067 42.675 60.747 z M 50 62.716 C 51.155 63.699 52.447 64.519 53.84 65.161 C 52.681000000000004 66.281 51.39 67.26 50 68.093 C 48.61 67.26 47.32 66.281 46.16 65.161 C 47.553 64.519 48.845 63.698 50 62.716 z M 50.742 62.041 C 51.803 61.022999999999996 52.724 59.866 53.489 58.599999999999994 C 54.604 59.54899999999999 55.901999999999994 60.285999999999994 57.324999999999996 60.74699999999999 C 56.54 62.065999999999995 55.617999999999995 63.291999999999994 54.574 64.40599999999999 C 53.18 63.802 51.892 63.003 50.742 62.041 z M 58.342 61.023 C 59.134 61.2 59.955 61.300000000000004 60.8 61.300000000000004 C 61.657999999999994 61.300000000000004 62.489999999999995 61.19500000000001 63.294 61.013000000000005 C 62.534 62.669000000000004 61.611999999999995 64.235 60.541999999999994 65.68700000000001 C 58.81099999999999 65.659 57.15299999999999 65.34400000000001 55.599999999999994 64.796 C 56.641 63.643 57.559 62.377 58.342 61.023 z M 64.555 60.645 C 67.119 59.737 69.25800000000001 57.935 70.596 55.609 C 70.069 58.569 69.138 61.39 67.852 64.009 C 66.009 64.941 63.962 65.514 61.794000000000004 65.651 C 62.878 64.09 63.809 62.416 64.555 60.645 z M 72.1 50 C 72.1 45.326 71.11399999999999 40.879 69.34899999999999 36.849000000000004 C 73.647 39.653 76.5 44.496 76.5 50 C 76.5 55.504 73.647 60.347 69.349 63.150999999999996 C 71.114 59.12 72.1 54.674 72.1 50 z M 70.596 44.391 C 69.25800000000001 42.064 67.119 40.262 64.555 39.355 C 63.809000000000005 37.583999999999996 62.87800000000001 35.91 61.794000000000004 34.349999999999994 C 63.962 34.486999999999995 66.009 35.059999999999995 67.851 35.992 C 69.137 38.611 70.068 41.432 70.596 44.391 z M 63.294 38.987 C 62.49 38.805 61.658 38.7 60.8 38.7 C 59.955 38.7 59.135 38.801 58.342999999999996 38.977000000000004 C 57.559999999999995 37.623000000000005 56.641999999999996 36.357000000000006 55.599999999999994 35.203 C 57.151999999999994 34.656000000000006 58.81099999999999 34.341 60.541999999999994 34.312000000000005 C 61.612 35.765 62.534 37.331 63.294 38.987 z M 57.325 39.253 C 55.902 39.714 54.603 40.451 53.489000000000004 41.4 C 52.724000000000004 40.135 51.804 38.977 50.743 37.958999999999996 C 51.893 36.99699999999999 53.181000000000004 36.19799999999999 54.574000000000005 35.593999999999994 C 55.618 36.708 56.539 37.933 57.325 39.253 z M 50 37.285 C 48.845 36.302 47.553 35.480999999999995 46.16 34.839 C 47.318999999999996 33.719 48.61 32.739999999999995 50 31.907 C 51.39 32.74 52.681 33.719 53.84 34.839 C 52.447 35.481 51.155 36.302 50 37.285 z M 45.148 34.414 C 43.596000000000004 33.82 41.936 33.454 40.203 33.351 C 41.35 31.935 42.637 30.637999999999998 44.047000000000004 29.485 C 45.789 29.897 47.45100000000001 30.515 48.99700000000001 31.33 C 47.602 32.215 46.309 33.248 45.148 34.414 z M 38.963 33.312 C 36.825 33.342 34.783 33.775 32.910000000000004 34.54 C 34.005 32.573 35.303000000000004 30.736 36.774 29.051 C 37.572 28.959 38.379 28.9 39.201 28.9 C 40.432 28.9 41.632 29.028 42.806 29.230999999999998 C 41.391 30.458 40.102 31.824 38.963 33.312 z M 31.411 35.239 C 26.118 38.044 22.5 43.604 22.5 50 C 22.5 56.396 26.118 61.956 31.411 64.761 C 32.484 66.88799999999999 33.777 68.88499999999999 35.267 70.71799999999999 C 25.507 68.869 18.1 60.289 18.1 50 C 18.1 39.71 25.508000000000003 31.131 35.267 29.281 C 33.777 31.114 32.484 33.112 31.411 35.239 z M 32.91 65.461 C 34.784 66.226 36.824999999999996 66.658 38.962999999999994 66.689 C 40.102999999999994 68.17699999999999 41.39099999999999 69.54299999999999 42.80499999999999 70.76899999999999 C 41.631 70.972 40.431 71.1 39.2 71.1 C 38.378 71.1 37.57 71.041 36.773 70.949 C 35.302 69.264 34.004 67.427 32.91 65.461 z M 40.203 66.649 C 41.936 66.545 43.596000000000004 66.18 45.148 65.586 C 46.309000000000005 66.752 47.602000000000004 67.785 48.998000000000005 68.67 C 47.45100000000001 69.485 45.790000000000006 70.10300000000001 44.047000000000004 70.515 C 42.637 69.362 41.35 68.065 40.203 66.649 z M 50 69.27 C 51.542 70.13799999999999 53.197 70.825 54.939 71.304 C 53.41 72.437 51.754 73.404 50 74.19 C 48.246 73.404 46.59 72.43599999999999 45.061 71.304 C 46.803 70.825 48.458 70.138 50 69.27 z M 51.002 68.67 C 52.398 67.785 53.691 66.751 54.852000000000004 65.58500000000001 C 56.404 66.18 58.06400000000001 66.545 59.797000000000004 66.64800000000001 C 58.650000000000006 68.06400000000001 57.36300000000001 69.361 55.953 70.51400000000001 C 54.21 70.104 52.548 69.485 51.002 68.67 z M 61.037 66.688 C 63.175 66.658 65.216 66.226 67.09 65.461 C 65.995 67.428 64.697 69.265 63.227000000000004 70.949 C 62.429 71.041 61.622 71.1 60.8 71.1 C 59.568999999999996 71.1 58.369 70.972 57.195 70.76899999999999 C 58.609 69.542 59.897 68.176 61.037 66.688 z M 68.589 64.761 C 73.882 61.957 77.5 56.396 77.5 50 C 77.5 43.604 73.882 38.043 68.589 35.239000000000004 C 67.516 33.111000000000004 66.223 31.114000000000004 64.732 29.281000000000006 C 74.492 31.13 81.9 39.71 81.9 50 C 81.9 60.29 74.492 68.869 64.732 70.718 C 66.223 68.885 67.516 66.889 68.589 64.761 z M 67.09 34.539 C 65.217 33.774 63.176 33.342 61.037000000000006 33.312000000000005 C 59.897000000000006 31.824000000000005 58.608000000000004 30.458000000000006 57.194 29.231000000000005 C 58.368 29.028000000000006 59.568000000000005 28.900000000000006 60.799 28.900000000000006 C 61.621 28.900000000000006 62.428 28.959000000000007 63.225 29.051000000000005 C 64.697 30.735 65.995 32.572 67.09 34.539 z M 59.797 33.351 C 58.064 33.455 56.403999999999996 33.82 54.852 34.414 C 53.690999999999995 33.248000000000005 52.397999999999996 32.215 51.001999999999995 31.329 C 52.54899999999999 30.514 54.209999999999994 29.896 55.952 29.484 C 57.362 30.638 58.65 31.935 59.797 33.351 z M 50 30.729 C 48.458 29.861 46.803 29.174 45.062 28.695 C 46.589999999999996 27.563 48.245999999999995 26.596 50 25.810000000000002 C 51.754 26.596000000000004 53.41 27.563000000000002 54.938 28.695 C 53.197 29.175 51.542 29.862 50 30.729 z M 43.823 28.39 C 42.331 28.071 40.786 27.900000000000002 39.2 27.900000000000002 C 38.723000000000006 27.900000000000002 38.25 27.921000000000003 37.78 27.951 C 39.278 26.388 40.93 24.975 42.716 23.741 C 44.814 24.021 46.834 24.544999999999998 48.749 25.288 C 46.993 26.147 45.345 27.191 43.823 28.39 z M 36.276 28.099 C 25.468 29.535 17.1 38.806 17.1 50 C 17.1 61.193 25.467000000000002 70.464 36.275000000000006 71.9 C 37.764 73.56500000000001 39.41700000000001 75.081 41.212 76.41600000000001 C 40.547000000000004 76.46600000000001 39.878 76.50000000000001 39.2 76.50000000000001 C 24.588 76.50000000000001 12.700000000000003 64.61200000000001 12.700000000000003 50.000000000000014 C 12.700000000000003 35.38800000000002 24.588 23.500000000000014 39.2 23.500000000000014 C 39.878 23.500000000000014 40.547000000000004 23.534000000000013 41.213 23.584000000000014 C 39.417 24.919 37.764 26.434 36.276 28.099 z M 37.779 72.049 C 38.249 72.07900000000001 38.722 72.10000000000001 39.2 72.10000000000001 C 40.785000000000004 72.10000000000001 42.331 71.929 43.822 71.61000000000001 C 45.344 72.80900000000001 46.993 73.85300000000001 48.749 74.71300000000001 C 46.835 75.45500000000001 44.814 75.98 42.716 76.26 C 40.93 75.025 39.277 73.612 37.779 72.049 z M 50 75.287 C 51.911 76.10600000000001 53.933 76.709 56.036 77.078 C 54.146 78.25800000000001 52.126000000000005 79.247 50 80.01400000000001 C 47.874 79.24700000000001 45.854 78.257 43.964 77.078 C 46.067 76.709 48.089 76.107 50 75.287 z M 51.251 74.713 C 53.007 73.853 54.655 72.80799999999999 56.178 71.61 C 57.669999999999995 71.929 59.214999999999996 72.1 60.8 72.1 C 61.278 72.1 61.75 72.079 62.22 72.04899999999999 C 60.722 73.612 59.07 75.02499999999999 57.283 76.25999999999999 C 55.185 75.98 53.165 75.455 51.251 74.713 z M 63.725 71.9 C 74.533 70.464 82.9 61.194 82.9 50 C 82.9 38.806 74.53200000000001 29.535 63.723000000000006 28.099 C 62.23400000000001 26.434 60.58200000000001 24.919 58.78600000000001 23.584 C 59.45100000000001 23.534 60.12100000000001 23.5 60.79900000000001 23.5 C 75.411 23.5 87.299 35.388 87.299 50 C 87.299 64.612 75.412 76.5 60.8 76.5 C 60.122 76.5 59.452999999999996 76.466 58.788 76.416 C 60.583 75.081 62.236 73.566 63.725 71.9 z M 62.22 27.95 C 61.75 27.919999999999998 61.278 27.9 60.8 27.9 C 59.214999999999996 27.9 57.669 28.070999999999998 56.177 28.389999999999997 C 54.655 27.190999999999995 53.007 26.147 51.251 25.286999999999995 C 53.165 24.544999999999995 55.186 24.019999999999996 57.284 23.739999999999995 C 59.07 24.974 60.722 26.387 62.22 27.95 z M 50 24.712 C 48.09 23.893 46.067 23.29 43.964 22.921 C 45.854 21.742 47.873999999999995 20.752 50 19.985 C 52.126 20.752 54.144999999999996 21.742 56.036 22.921 C 53.933 23.291 51.91 23.893 50 24.712 z M 60.8 81.9 C 57.562 81.9 54.436 81.411 51.489 80.51 C 53.625 79.646 55.653999999999996 78.572 57.541 77.30000000000001 C 58.611 77.427 59.696999999999996 77.50000000000001 60.8 77.50000000000001 C 75.963 77.50000000000001 88.3 65.16300000000001 88.3 50.000000000000014 C 88.3 34.83600000000001 75.963 22.500000000000014 60.8 22.500000000000014 C 59.696 22.500000000000014 58.61 22.573000000000015 57.54 22.700000000000014 C 55.653 21.428000000000015 53.624 20.354000000000013 51.488 19.490000000000013 C 54.435 18.589000000000013 57.561 18.100000000000012 60.799 18.100000000000012 C 78.389 18.100000000000012 92.699 32.41000000000001 92.699 50.000000000000014 C 92.699 67.59000000000002 78.39 81.9 60.8 81.9 z" stroke-linecap="round" />
</g>
<g transform="matrix(NaN NaN NaN NaN 0 0)"  >
<g style=""   >
</g>
</g>
<g transform="matrix(NaN NaN NaN NaN 0 0)"  >
<g style=""   >
</g>
</g>
</svg>